<svg width="211" height="39" viewBox="0 0 211 39" fill="none" xmlns="http://www.w3.org/2000/svg">
<path d="M53.1068 30.3893H54.1406V32.6751H54.9447L56.5069 30.3893H57.7015L55.7603 33.1116L57.9313 36.1326H56.6907L54.9447 33.617H54.1406V36.1326H53.1068V30.3893Z" fill="#18356B"/>
<path d="M60.7287 36.1326L58.3853 30.3893H59.5111L61.2685 34.8691H61.2915L62.9571 30.3893H64.0139L60.901 38.43H59.8442L60.7287 36.1326Z" fill="#18356B"/>
<path d="M65.0423 30.3893H65.8464L65.9612 31.1933H65.9842C66.2522 30.8717 66.5318 30.642 66.8228 30.5041C67.1214 30.3663 67.4775 30.2974 67.891 30.2974C68.2356 30.2974 68.5496 30.3586 68.8329 30.4811C69.1163 30.596 69.3613 30.7721 69.5681 31.0095C69.7749 31.2393 69.9318 31.5303 70.0391 31.8825C70.1539 32.2271 70.2114 32.633 70.2114 33.1001V33.4218C70.2114 33.8812 70.1539 34.2871 70.0391 34.6394C69.9242 34.984 69.7634 35.275 69.5566 35.5124C69.3498 35.7498 69.1048 35.9297 68.8215 36.0522C68.5381 36.1671 68.228 36.2245 67.891 36.2245C67.5005 36.2245 67.1635 36.1633 66.8802 36.0407C66.6045 35.9182 66.3441 35.7191 66.0991 35.4434H66.0761V38.43H65.0423V30.3893ZM67.6039 35.2826C68.071 35.2826 68.4424 35.1333 68.7181 34.8346C68.9938 34.5283 69.1316 34.0574 69.1316 33.4218V33.1001C69.1316 32.4798 68.9899 32.0165 68.7066 31.7102C68.4309 31.3963 68.0633 31.2393 67.6039 31.2393C67.1367 31.2393 66.7653 31.3924 66.4896 31.6987C66.214 31.9974 66.0761 32.4645 66.0761 33.1001V33.4218C66.0761 34.042 66.214 34.5092 66.4896 34.8232C66.773 35.1295 67.1444 35.2826 67.6039 35.2826Z" fill="#18356B"/>
<path d="M73.7758 36.2245C73.0024 36.2245 72.3859 35.9833 71.9265 35.5009C71.4747 35.0184 71.2488 34.3062 71.2488 33.3643V33.0427C71.2488 32.6062 71.31 32.2195 71.4325 31.8825C71.5551 31.5456 71.7235 31.2584 71.938 31.021C72.16 30.7836 72.4242 30.6037 72.7305 30.4811C73.0445 30.3586 73.393 30.2974 73.7758 30.2974C74.1358 30.2974 74.4536 30.3471 74.7292 30.4467C75.0126 30.5386 75.2538 30.6649 75.4529 30.8257C75.652 30.9866 75.8128 31.178 75.9354 31.4001C76.0579 31.6222 76.1421 31.8596 76.1881 32.1123H75.1083C75.0241 31.8672 74.8786 31.6605 74.6718 31.492C74.4727 31.3235 74.1932 31.2393 73.8333 31.2393C73.3738 31.2393 73.0062 31.3886 72.7305 31.6873C72.4625 31.9783 72.3285 32.4301 72.3285 33.0427V33.3643C72.3285 34.0306 72.4625 34.5168 72.7305 34.8232C73.0062 35.1295 73.3738 35.2826 73.8333 35.2826C74.1932 35.2826 74.4727 35.1946 74.6718 35.0184C74.8786 34.8346 75.0241 34.5934 75.1083 34.2948H76.1881C76.1421 34.5781 76.0579 34.8385 75.9354 35.0759C75.8128 35.3056 75.652 35.5085 75.4529 35.6847C75.2538 35.8531 75.0126 35.9871 74.7292 36.0867C74.4536 36.1786 74.1358 36.2245 73.7758 36.2245Z" fill="#18356B"/>
<path d="M82.7916 30.3893H83.8254V36.1326H82.7916V30.3893ZM77.3928 30.3893H78.4266V32.2271H79.5753C80.3641 32.2271 80.9423 32.3994 81.3098 32.744C81.6851 33.0886 81.8727 33.5673 81.8727 34.1799C81.8727 34.7849 81.6851 35.2635 81.3098 35.6157C80.9346 35.9603 80.3564 36.1326 79.5753 36.1326H77.3928V30.3893ZM78.4266 33.1691V35.1907H79.5179C79.985 35.1907 80.3143 35.1065 80.5058 34.938C80.6972 34.7695 80.7929 34.5168 80.7929 34.1799C80.7929 33.8506 80.6934 33.6017 80.4943 33.4332C80.3028 33.2571 79.9774 33.1691 79.5179 33.1691H78.4266Z" fill="#18356B"/>
<path d="M88.4771 28.0919H93.4739V29.0798H89.5569V31.5035H92.7847V32.4913H89.5569V35.1448H93.4739V36.1326H88.4771V28.0919Z" fill="#18356B"/>
<path d="M94.9048 28.0919H99.6718V29.0798H95.9846V36.1326H94.9048V28.0919Z" fill="#18356B"/>
<path d="M103.226 36.2245C102.766 36.2245 102.353 36.1594 101.985 36.0293C101.625 35.8991 101.311 35.7191 101.043 35.4894C100.783 35.252 100.568 34.9763 100.4 34.6623C100.231 34.3407 100.12 33.9884 100.067 33.6056H101.215C101.33 34.088 101.552 34.4824 101.882 34.7887C102.219 35.0873 102.667 35.2367 103.226 35.2367C103.876 35.2367 104.405 35.0108 104.811 34.559C105.224 34.1071 105.45 33.4371 105.488 32.5488H102.249V31.5609H105.488C105.45 30.7262 105.224 30.0906 104.811 29.6541C104.405 29.2099 103.876 28.9879 103.226 28.9879C102.95 28.9879 102.697 29.0262 102.467 29.1027C102.245 29.1793 102.05 29.2865 101.882 29.4244C101.721 29.5622 101.583 29.723 101.468 29.9068C101.353 30.0906 101.269 30.2897 101.215 30.5041H100.067C100.12 30.1519 100.231 29.8264 100.4 29.5277C100.568 29.2214 100.783 28.9572 101.043 28.7352C101.311 28.5054 101.625 28.3255 101.985 28.1953C102.353 28.0651 102.766 28 103.226 28C103.723 28 104.179 28.0842 104.592 28.2527C105.014 28.4212 105.374 28.6701 105.672 28.9993C105.971 29.321 106.201 29.7154 106.361 30.1825C106.53 30.6496 106.614 31.1818 106.614 31.7792V32.3305C106.614 32.9585 106.53 33.5175 106.361 34.0076C106.201 34.49 105.971 34.8959 105.672 35.2252C105.374 35.5545 105.017 35.8034 104.604 35.9718C104.19 36.1403 103.731 36.2245 103.226 36.2245Z" fill="#18356B"/>
<path d="M110.978 30.3893H112.012V34.8691H112.035L114.539 30.3893H115.918V36.1326H114.884V31.6528H114.861L112.357 36.1326H110.978V30.3893Z" fill="#18356B"/>
<path d="M123.729 36.2245C123.209 36.2245 122.738 36.1403 122.317 35.9718C121.895 35.8034 121.532 35.5545 121.225 35.2252C120.927 34.8959 120.693 34.49 120.525 34.0076C120.364 33.5175 120.283 32.9585 120.283 32.3305V31.7792C120.283 31.1818 120.364 30.6496 120.525 30.1825C120.693 29.7154 120.927 29.321 121.225 28.9993C121.532 28.6701 121.895 28.4212 122.317 28.2527C122.745 28.0842 123.216 28 123.729 28C124.243 28 124.71 28.0842 125.131 28.2527C125.56 28.4212 125.923 28.6662 126.222 28.9879C126.528 29.3095 126.762 29.7077 126.923 30.1825C127.091 30.6496 127.175 31.1818 127.175 31.7792V32.3305C127.175 32.9585 127.091 33.5137 126.923 33.9961C126.762 34.4785 126.528 34.8844 126.222 35.2137C125.923 35.543 125.56 35.7957 125.131 35.9718C124.71 36.1403 124.243 36.2245 123.729 36.2245ZM123.729 35.2367C124.419 35.2367 124.978 34.9993 125.407 34.5245C125.835 34.042 126.05 33.3107 126.05 32.3305V31.7792C126.05 31.3197 125.992 30.9176 125.877 30.573C125.763 30.2208 125.602 29.9298 125.395 29.7C125.196 29.4627 124.955 29.2865 124.671 29.1717C124.388 29.0491 124.074 28.9879 123.729 28.9879C123.385 28.9879 123.071 29.0453 122.788 29.1602C122.504 29.275 122.259 29.4512 122.052 29.6886C121.846 29.9183 121.685 30.2093 121.57 30.5616C121.463 30.9062 121.409 31.312 121.409 31.7792V32.3305C121.409 32.8206 121.467 33.2495 121.581 33.617C121.696 33.977 121.857 34.2794 122.064 34.5245C122.271 34.7619 122.516 34.9418 122.799 35.0644C123.082 35.1792 123.393 35.2367 123.729 35.2367Z" fill="#18356B"/>
<path d="M128.726 28.0919H133.493V29.0798H129.806V36.1326H128.726V28.0919Z" fill="#18356B"/>
<path d="M137.046 36.2245C136.587 36.2245 136.173 36.1594 135.806 36.0293C135.446 35.8991 135.132 35.7191 134.864 35.4894C134.604 35.252 134.389 34.9763 134.221 34.6623C134.052 34.3407 133.941 33.9884 133.888 33.6056H135.036C135.151 34.088 135.373 34.4824 135.703 34.7887C136.039 35.0873 136.487 35.2367 137.046 35.2367C137.697 35.2367 138.226 35.0108 138.632 34.559C139.045 34.1071 139.271 33.4371 139.309 32.5488H136.07V31.5609H139.309C139.271 30.7262 139.045 30.0906 138.632 29.6541C138.226 29.2099 137.697 28.9879 137.046 28.9879C136.771 28.9879 136.518 29.0262 136.288 29.1027C136.066 29.1793 135.871 29.2865 135.703 29.4244C135.542 29.5622 135.404 29.723 135.289 29.9068C135.174 30.0906 135.09 30.2897 135.036 30.5041H133.888C133.941 30.1519 134.052 29.8264 134.221 29.5277C134.389 29.2214 134.604 28.9572 134.864 28.7352C135.132 28.5054 135.446 28.3255 135.806 28.1953C136.173 28.0651 136.587 28 137.046 28C137.544 28 138 28.0842 138.413 28.2527C138.835 28.4212 139.195 28.6701 139.493 28.9993C139.792 29.321 140.022 29.7154 140.182 30.1825C140.351 30.6496 140.435 31.1818 140.435 31.7792V32.3305C140.435 32.9585 140.351 33.5175 140.182 34.0076C140.022 34.49 139.792 34.8959 139.493 35.2252C139.195 35.5545 138.838 35.8034 138.425 35.9718C138.011 36.1403 137.552 36.2245 137.046 36.2245Z" fill="#18356B"/>
<path d="M57.742 14.129H56.7755V21.4644H53.1078V4.11715H56.7755V12.481L57.6429 11.3782L62.847 4.11715H67.0351L61.5336 11.3782L60.7902 12.3199L61.5832 13.3112L67.8777 21.4644H63.3427L57.742 14.129Z" fill="#18356B"/>
<path d="M67.8752 12.7908C67.8752 11.3699 68.0569 10.0978 68.4204 8.97437C68.7839 7.85093 69.3043 6.90923 69.9817 6.14925C70.6755 5.37276 71.5181 4.78626 72.5094 4.38975C73.5007 3.97672 74.6241 3.7702 75.8797 3.7702C77.2179 3.7702 78.3827 3.99324 79.3739 4.43931C80.3817 4.86886 81.2161 5.48014 81.8769 6.27316C82.5543 7.06618 83.0582 8.01614 83.3886 9.12306C83.7355 10.23 83.909 11.4525 83.909 12.7908C83.909 14.2116 83.719 15.4837 83.339 16.6072C82.9756 17.7306 82.4469 18.6806 81.753 19.4571C81.0591 20.217 80.2165 20.8035 79.2253 21.2166C78.234 21.6131 77.1188 21.8113 75.8797 21.8113C74.5415 21.8113 73.3685 21.5966 72.3607 21.167C71.3694 20.7209 70.5351 20.1014 69.8577 19.3084C69.1969 18.5154 68.7013 17.5654 68.3708 16.4585C68.0404 15.3515 67.8752 14.129 67.8752 12.7908ZM71.7659 12.7908C71.7659 13.6499 71.8485 14.4346 72.0138 15.145C72.179 15.8554 72.4268 16.4667 72.7572 16.9789C73.0876 17.491 73.5089 17.8875 74.0211 18.1684C74.5498 18.4493 75.1693 18.5897 75.8797 18.5897C77.1849 18.5897 78.2009 18.1436 78.9279 17.2515C79.6548 16.3593 80.0183 14.8724 80.0183 12.7908C80.0183 11.9647 79.9439 11.1965 79.7952 10.4861C79.6465 9.77565 79.3987 9.16437 79.0518 8.65221C78.7214 8.12353 78.2918 7.71876 77.7631 7.4379C77.251 7.14052 76.6232 6.99183 75.8797 6.99183C74.5911 6.99183 73.5833 7.45443 72.8563 8.37961C72.1294 9.3048 71.7659 10.7752 71.7659 12.7908Z" fill="#18356B"/>
<path d="M97.6025 14.3025H90.6636V21.4644H86.9959V4.11715H90.6636V11.0808H97.6025V4.11715H101.27V21.4644H97.6025V14.3025Z" fill="#18356B"/>
<path d="M118.594 7.33878H113.092V21.4644H109.425V7.33878H103.923V4.11715H118.594V7.33878Z" fill="#18356B"/>
<path d="M132.527 11.8986V10.3126L131.337 11.9234L124.225 21.4644H121.499V4.11715H125.166V13.4599V15.2689L126.405 13.4599L133.443 4.11715H136.194V21.4644H132.527V11.8986Z" fill="#18356B"/>
<path d="M150.51 14.3025H143.571V21.4644H139.903V4.11715H143.571V11.0808H150.51V4.11715H154.177V21.4644H150.51V14.3025Z" fill="#18356B"/>
<path d="M164.661 11.6756L165.293 12.7908L165.801 11.5765L168.626 4.11715H172.468L167.437 16.1859C167.057 17.1111 166.677 17.9123 166.297 18.5897C165.917 19.2671 165.512 19.837 165.083 20.2996C164.653 20.7457 164.174 21.0844 163.645 21.3157C163.117 21.5305 162.505 21.6379 161.811 21.6379C161.217 21.6379 160.746 21.6048 160.399 21.5387C160.052 21.4726 159.664 21.3074 159.234 21.0431L160.151 18.0941C160.465 18.2428 160.746 18.3336 160.994 18.3667C161.258 18.3997 161.531 18.4162 161.811 18.4162C162.671 18.4162 163.265 17.838 163.596 16.6815L156.533 4.11715H160.845L164.661 11.6756Z" fill="#18356B"/>
<path d="M181.915 11.6756L182.547 12.7908L183.055 11.5765L185.88 4.11715H189.721L184.69 16.1859C184.31 17.1111 183.93 17.9123 183.55 18.5897C183.17 19.2671 182.766 19.837 182.336 20.2996C181.906 20.7457 181.427 21.0844 180.899 21.3157C180.37 21.5305 179.759 21.6379 179.065 21.6379C178.47 21.6379 177.999 21.6048 177.652 21.5387C177.305 21.4726 176.917 21.3074 176.487 21.0431L177.404 18.0941C177.718 18.2428 177.999 18.3336 178.247 18.3667C178.511 18.3997 178.784 18.4162 179.065 18.4162C179.924 18.4162 180.519 17.838 180.849 16.6815L173.786 4.11715H178.098L181.915 11.6756Z" fill="#18356B"/>
<path d="M206.528 12.766L206.526 10.3126L205.587 11.8986L201.572 18.3667H200.432L196.169 11.8738L195.374 10.6224L195.376 12.7412V21.4644H191.907V4.11715H195.228L200.234 12.1217L201.237 13.7201L206.9 4.11715H210.196V21.4644H206.528V12.766Z" fill="#18356B"/>
<path fill-rule="evenodd" clip-rule="evenodd" d="M37.5361 1.20529C38.3171 1.98634 38.3171 3.25267 37.5361 4.03372L6.55887 35.0109C5.77782 35.792 4.51149 35.792 3.73044 35.0109C2.94939 34.2299 2.94939 32.9635 3.73044 32.1825L34.7076 1.20529C35.4887 0.424245 36.755 0.424245 37.5361 1.20529Z" fill="#FFC107"/>
<path fill-rule="evenodd" clip-rule="evenodd" d="M39.993 12.9551C40.7859 13.7241 40.8054 14.9903 40.0365 15.7832L20.2111 36.2282C19.4421 37.0212 18.1759 37.0406 17.383 36.2717C16.59 35.5027 16.5705 34.2366 17.3395 33.4436L37.1649 12.9986C37.9338 12.2057 39.2 12.1862 39.993 12.9551Z" fill="#FF655B"/>
<path fill-rule="evenodd" clip-rule="evenodd" d="M22.0475 16.6939C22.8285 17.475 22.8285 18.7413 22.0475 19.5224L6.55887 35.011C5.77782 35.792 4.51149 35.792 3.73044 35.011C2.94939 34.2299 2.94939 32.9636 3.73044 32.1825L19.219 16.6939C20.0001 15.9129 21.2664 15.9129 22.0475 16.6939Z" fill="#28A745"/>
<path fill-rule="evenodd" clip-rule="evenodd" d="M23.9063 0.585786C24.6873 1.36683 24.6873 2.63317 23.9063 3.41421L4.08084 23.2396C3.29979 24.0207 2.03346 24.0207 1.25241 23.2396C0.471364 22.4586 0.471364 21.1922 1.25241 20.4112L21.0778 0.585786C21.8589 -0.195262 23.1252 -0.195262 23.9063 0.585786Z" fill="#326EEA"/>
</svg>
